inDegrees=no
num_controls=7
num_derivatives=13
num_iterations=86
num_multipliers=7
num_parameters=0
num_slacks=7
num_states=26
objective=0.422147
objective_accelerations=0.064212
objective_balance=0.001326
objective_effort=0.016102
objective_height=0.334576
objective_ligament=0.005932
solver_duration=1291.698216
status=Solve_Succeeded
success=true
DataType=double
version=3
OpenSimVersion=4.5
endheader
time	/jointset/ground_pelvis/pelvis_tilt/value	/jointset/ground_pelvis/pelvis_tx/value	/jointset/ground_pelvis/pelvis_ty/value	/jointset/hip_l/hip_flexion_l/value	/jointset/hip_l/hip_adduction_l/value	/jointset/hip_l/hip_rotation_l/value	/jointset/back/lumbar_extension/value	/jointset/patellofemoral_l/patellar_flexion_l/value	/jointset/knee_l/knee_flexion_l/value	/jointset/knee_l/knee_adduction_l/value	/jointset/knee_l/knee_rotation_l/value	/jointset/ankle_l/ankle_angle_l/value	/jointset/subtalar_l/subtalar_angle_l/value	/jointset/ground_pelvis/pelvis_tilt/speed	/jointset/ground_pelvis/pelvis_tx/speed	/jointset/ground_pelvis/pelvis_ty/speed	/jointset/hip_l/hip_flexion_l/speed	/jointset/hip_l/hip_adduction_l/speed	/jointset/hip_l/hip_rotation_l/speed	/jointset/back/lumbar_extension/speed	/jointset/patellofemoral_l/patellar_flexion_l/speed	/jointset/knee_l/knee_flexion_l/speed	/jointset/knee_l/knee_adduction_l/speed	/jointset/knee_l/knee_rotation_l/speed	/jointset/ankle_l/ankle_angle_l/speed	/jointset/subtalar_l/subtalar_angle_l/speed	/forceset/tau_hip_flexion_l	/forceset/tau_hip_adduction_l	/forceset/tau_hip_rotation_l	/forceset/tau_knee_flexion_l	/forceset/tau_ankle_angle_l	/forceset/tau_subtalar_angle_l	/forceset/tau_lumbar_extension	lambda_cid13_p0	lambda_cid13_p1	lambda_cid13_p2	lambda_cid13_p3	lambda_cid13_p4	lambda_cid13_p5	lambda_cid14_p0	/jointset/ground_pelvis/pelvis_tilt/accel	/jointset/ground_pelvis/pelvis_tx/accel	/jointset/ground_pelvis/pelvis_ty/accel	/jointset/hip_l/hip_flexion_l/accel	/jointset/hip_l/hip_adduction_l/accel	/jointset/hip_l/hip_rotation_l/accel	/jointset/back/lumbar_extension/accel	/jointset/patellofemoral_l/patellar_flexion_l/accel	/jointset/knee_l/knee_flexion_l/accel	/jointset/knee_l/knee_adduction_l/accel	/jointset/knee_l/knee_rotation_l/accel	/jointset/ankle_l/ankle_angle_l/accel	/jointset/subtalar_l/subtalar_angle_l/accel	gamma_cid13_p0	gamma_cid13_p1	gamma_cid13_p2	gamma_cid13_p3	gamma_cid13_p4	gamma_cid13_p5	gamma_cid14_p0
1	-0.4850707206168615	-0.01250551712675436	0.5530435244325508	1.845253432788464	-0.338827552545145	0.1522659238395193	-0.4362622590521726	1.611269400914337	1.611269400914351	0.09185586739376377	-0.1744478099059227	0.4350138920780564	0.2617643648554425	-0.1459679344709101	-0.001439813166358807	0.03702614562615625	0.01929624932058172	-0.001813402065894137	-0.05657594013697583	-0.0002715153604356517	-0.1586095560540593	-0.1586095560540727	-0.009072251790810905	7.861868482113459e-05	-0.04618254822770742	-0.03172086330363748	-0.2591937343452952	0.04735593445291772	-0.02035533721733967	-0.2999242908807123	-0.03023818592210645	0.002010969398514383	0.2202500814361644	-44.29400599651021	14.71345847970279	-11.57192380124445	8.468934680853501	-551.7961830457452	-54.73986144726567	-0.02322954867187934	1.450790117586637	0.1259344898391517	2.237571052494875	-7.126591708730269	-0.2839494914722026	-1.62555627040584	-0.02940789179097052	-5.971023286583954	-5.971023286583942	-1.018170290402518	-0.03271067831276685	-0.8232583330633296	-0.9649628113114809	8.501375080328776e-10	-1.69960733263936e-07	-1.224050710741334e-07	-2.106555717380871e-08	-1.028907803710055e-08	-2.893971843966474e-07	1.694612893653695e-08
1.01	-0.4864585298409196	-0.01251358090970088	0.5535254469946641	1.845091089382688	-0.3388591714791372	0.1516219367067346	-0.4362655750416112	1.609385194855117	1.609385194855109	0.09171216922701672	-0.1744470075305068	0.4345108942241286	0.2614000719230557	-0.1315819944493281	-0.0001627729005513046	0.05934788158098898	-0.05175094951709931	-0.004503772313109353	-0.07221178397824989	-0.0003932578011428384	-0.2182224546692689	-0.2182224546692159	-0.01966041494201951	8.218007348202857e-05	-0.05443011886450419	-0.04112902256010797	-0.2595074089906417	0.04735837993432646	-0.02034921943172736	-0.2990671882387568	-0.03037143842557515	0.002059061150619388	0.2203950055969968	-44.28951456376967	14.65352207484696	-11.51866211412515	8.293428817028564	-551.5641269871944	-54.63264267262548	-0.02324480271135667	1.434283904072877	0.1301075870048213	2.227898847846194	-7.091686320054077	-0.2605639842811014	-1.53114464741669	-0.003793711224223011	-5.955047494238408	-5.955047494228478	-1.07810094998425	0.0168876972680391	-0.8274802120966691	-0.9273811700142878	1.969130138265846e-09	-2.247061972535692e-07	-1.715159566190011e-07	-3.380295931702597e-08	-1.612506895272885e-08	-3.790135622024385e-07	2.251049487792221e-08
1.02	-0.4877021220728358	-0.01250857053157867	0.5542302717124996	1.844218693518782	-0.3389174907541888	0.1508218818942506	-0.4362701557136547	1.606905134940696	1.606905134940667	0.09146279710426221	-0.1744461699112415	0.4339250259072105	0.2609419696606643	-0.1171245360425909	0.001175019047386764	0.08160657677057435	-0.1227142423054633	-0.007153470277720821	-0.08778947607666426	-0.0005244518823941043	-0.2777803270944361	-0.2777803270943174	-0.03020704299339743	8.566745464331919e-05	-0.06275664082565285	-0.05048272930455668	-0.2598210836359957	0.04736082541572996	-0.0203431016461028	-0.2982100855968008	-0.03050469092904353	0.002107152902715781	0.2205399297578206	-44.28747413368881	14.59179896955978	-11.46258412294547	8.11598815572775	-551.4280421032126	-54.52452391905562	-0.02326249197201172	1.465093794617691	0.1380848262652714	2.224962899445404	-7.109810498866863	-0.2758150349514579	-1.613925921833901	-0.03129821989973731	-5.96001804857548	-5.960018048575607	-1.009863270436384	-0.03272547981269249	-0.8390485979336935	-0.9540723089071242	2.811638385260718e-09	-2.766273923556983e-07	-2.170775825748546e-07	-4.572603745234256e-08	-2.157647394878886e-08	-4.593104168432663e-07	2.715694408329968e-08
1.03	-0.4888006833448056	-0.01248981681981034	0.555157285272025	1.842637185755469	-0.3390020781129444	0.1498663298781327	-0.4362760985346265	1.603829891682392	1.603829891682441	0.09110827577338958	-0.174445306917946	0.4332554423294545	0.2603906315877165	-0.1025660719510749	0.002592045223308208	0.1037774506546182	-0.1935637575538509	-0.009754711017378384	-0.1033053732160882	-0.0006660427692787942	-0.3372471163998344	-0.3372471163998688	-0.04068662164912334	8.676135431100608e-05	-0.07117834780339981	-0.05977281444818007	-0.2598994203398713	0.0473500472973344	-0.02028452434830932	-0.297206436847291	-0.03048936150486691	0.002206828676107715	0.22054939777451	-44.2071536330788	14.48399507263456	-11.38777006539522	7.853351499622957	-551.0067839907911	-54.45268035979318	-0.02328529694791389	1.454469734385385	0.1459482004507571	2.21034152309706	-7.068989170132925	-0.2508457572416952	-1.518091243771557	-0.005879091542083825	-5.936834533441379	-5.936834533464267	-1.065425615710019	0.01642561086192574	-0.8464862808925466	-0.9145821835592556	3.651325363038873e-09	-3.285197683875467e-07	-2.626029915961263e-07	-5.764080615900709e-08	-2.702395459873082e-08	-5.395121743089413e-07	3.179402679137095e-08
1.04	-0.4897530105722666	-0.01245640550884376	0.5563054459484335	1.840347889413205	-0.339112391311851	0.1487560849638631	-0.4362835151781529	1.60016061549865	1.600160615498778	0.09064927456545271	-0.1744444532284516	0.4325010907752821	0.2597467715500386	-0.08787772714088712	0.004106538887035638	0.12583600014719	-0.2642719580945689	-0.01229863830778604	-0.1187280557065095	-0.000819216394532729	-0.3965869121820075	-0.3965869121821942	-0.05110301840762307	8.380669419517139e-05	-0.07971023610904009	-0.06898712225057599	-0.259977757043783	0.04733926917892579	-0.02022594705050333	-0.2962027880977802	-0.03047403208068642	0.002306504449480446	0.2205588657911602	-44.12956522202508	14.37449225555767	-11.31019775790554	7.589403992478551	-550.6828051395053	-54.38086886653579	-0.02331044437195096	1.491069938352035	0.1575783238264731	2.202498021151002	-7.081547557332969	-0.2643523451014803	-1.595282992033398	-0.03361476757350566	-5.934619343930443	-5.934619343930404	-0.9972268909911537	-0.03353519176940141	-0.8610848635123528	-0.9389168406616305	4.291059491988074e-09	-3.761029808264945e-07	-3.028093931574911e-07	-6.798163457959802e-08	-3.236406041798705e-08	-6.098007182670429e-07	3.567739291620303e-08
1.05	-0.4905577985738298	-0.01240732372206027	0.5576735524975066	1.837352395412051	-0.3392478193790576	0.1474920121784138	-0.4362924217654089	1.595898629951155	1.595898629951217	0.09008657503055245	-0.1744436400726692	0.4316607567490176	0.2590111603784452	-0.07305818397559838	0.005729878373076169	0.1477589471567285	-0.3347861238628064	-0.01477308345509628	-0.1340672848885714	-0.0009537091393543944	-0.4557837110812358	-0.4557837110814081	-0.061421491972297	8.144086520631823e-05	-0.08838555440452926	-0.07811996389908228	-0.2598643290249673	0.04735518541749722	-0.02011834574179745	-0.2950295674510929	-0.03039314672438219	0.002442889328426676	0.2204623760097479	-44.00623478638649	14.23093668624531	-11.21565926760462	7.285665877831727	-550.1072107639646	-54.32350493043525	-0.02334193467043137	1.480649518745633	0.1677049879024265	2.183231070183978	-7.03024388600942	-0.2368547870120964	-1.500364480527113	-0.002107740110267708	-5.908245173971923	-5.90824517396981	-1.046863241595211	0.01670712793063113	-0.8751206248245201	-0.8980869499021396	4.924545094411372e-09	-4.235515319031641e-07	-3.428495757357339e-07	-7.827327736624915e-08	-3.770081077378434e-08	-6.79779474303033e-07	3.953720539780889e-08
1.06	-0.4912137405411144	-0.01234140989503447	0.5592600961225407	1.833652981193317	-0.339407564735232	0.1460751227812935	-0.4363024215225392	1.591045469412457	1.59104546941246	0.08942114962953124	-0.1744427916938965	0.4307327964773479	0.2581846969657752	-0.05810852028517834	0.007472946935498019	0.169523415339411	-0.4050560016086582	-0.01716209610105653	-0.1492913780400152	-0.001037850371126882	-0.5148219104225804	-0.5148219104227385	-0.07164819163255978	9.085129198715013e-05	-0.09723548519031065	-0.08715757046586932	-0.2597509010062219	0.04737110165604938	-0.02001074443309155	-0.2938563468044041	-0.03031226136806899	0.002579274207346978	0.2203658862282601	-43.88601489082979	14.08578015668977	-11.11841435688012	6.981343602985079	-549.6311087389203	-54.26753653517318	-0.02337567871236101	1.517094043378298	0.1815241391027404	2.170802255779781	-7.032689952855844	-0.2472658448314879	-1.572255785909791	-0.02354446496354345	-5.902899432353704	-5.902899432353713	-0.9788721101089294	-0.03117994061546895	-0.8960073615707909	-0.9198698243177786	3.882545558182259e-09	-4.659241603787971e-07	-3.785617673005755e-07	-8.424391833997487e-08	-4.33514543298195e-08	-7.349252060845963e-07	4.231572151068588e-08
1.07	-0.4917194164050206	-0.01225733514594977	0.561063460018366	1.829251944588551	-0.33959081120534	0.144506507470538	-0.4363128651931501	1.585602769024065	1.585602769024088	0.08865398688271953	-0.1744418444208657	0.4297155627204827	0.2572683569854819	-0.04299410575294429	0.009375082669413386	0.1911198773888182	-0.4751254186822695	-0.01947554248104236	-0.1644081935197118	-0.001027022275834603	-0.5736870064616211	-0.5736870064616594	-0.081771583386948	9.883858709945175e-05	-0.10622997336943	-0.09609007840433421	-0.2594751696165541	0.04737894926382683	-0.01984814462457958	-0.2926871533355637	-0.02985557245560699	0.002735559399481933	0.2202323809708911	-43.62488615531635	13.91212070745758	-11.02212203653969	6.463484378498122	-549.0256779134879	-54.2404762165577	-0.02341156383655492	1.513496470506541	0.1995021806105574	2.149635330093408	-6.990183502949254	-0.2215713898392237	-1.4778769812461	0.01697566827238878	-5.873649616362828	-5.87364961634478	-1.027177147998144	0.01670593689583066	-0.9039973013288372	-0.8767584327835973	2.751424472024815e-09	-5.080267929713963e-07	-4.140437465774702e-07	-8.998471879173644e-08	-4.901879433267583e-08	-7.892819472143283e-07	4.503672185926878e-08
1.08	-0.4920729718611327	-0.01215325026151098	0.5630819019647998	1.824150990629369	-0.3397968296103009	0.142787427494532	-0.4363224847384807	1.579572350689946	1.57957235069	0.0877859693303884	-0.174440833700418	0.4286078185307786	0.2562633284949694	-0.02768443872628932	0.01147497400631354	0.212539025461103	-0.5450394724893037	-0.0217164830713092	-0.1793843110892692	-0.000873025320672244	-0.6323654995680053	-0.6323654995679211	-0.09181915273711222	0.0001035407750613068	-0.1153375717584027	-0.1048952725097097	-0.2591994382269706	0.04738679687158137	-0.01968554481607052	-0.2915179598667221	-0.02939888354313462	0.002891844591585927	0.2200988757134314	-43.36729716544417	13.73689153380815	-10.92307814457212	5.946260857484742	-548.5219366861463	-54.21655463526496	-0.02344973002439797	1.556144542262492	0.2210752596997006	2.135339460355306	-7.001617299540449	-0.2327646868876953	-1.54411620388193	0.005089307010697151	-5.865578845822355	-5.865578845821918	-0.9637076292641339	-0.03183696204556315	-0.9186294035414656	-0.8944070576998994	1.382242459460555e-09	-5.485297629706982e-07	-4.319334548885109e-07	-9.651463711784937e-08	-5.448115815053224e-08	-8.212312565236217e-07	4.373883193315149e-08
